<svg xmlns="http://www.w3.org/2000/svg" viewBox="0 0 148 148 "><style scoped="">.bg{fill:#FFF}.fg{fill:#000}</style><rect class="bg" x="0" y="0" width="148" height="148"></rect><rect x="16" y="16" class="fg" width="4" height="4"></rect><rect x="20" y="16" class="fg" width="4" height="4"></rect><rect x="24" y="16" class="fg" width="4" height="4"></rect><rect x="28" y="16" class="fg" width="4" height="4"></rect><rect x="32" y="16" class="fg" width="4" height="4"></rect><rect x="36" y="16" class="fg" width="4" height="4"></rect><rect x="40" y="16" class="fg" width="4" height="4"></rect><rect x="48" y="16" class="fg" width="4" height="4"></rect><rect x="52" y="16" class="fg" width="4" height="4"></rect><rect x="68" y="16" class="fg" width="4" height="4"></rect><rect x="72" y="16" class="fg" width="4" height="4"></rect><rect x="96" y="16" class="fg" width="4" height="4"></rect><rect x="104" y="16" class="fg" width="4" height="4"></rect><rect x="108" y="16" class="fg" width="4" height="4"></rect><rect x="112" y="16" class="fg" width="4" height="4"></rect><rect x="116" y="16" class="fg" width="4" height="4"></rect><rect x="120" y="16" class="fg" width="4" height="4"></rect><rect x="124" y="16" class="fg" width="4" height="4"></rect><rect x="128" y="16" class="fg" width="4" height="4"></rect><rect x="16" y="20" class="fg" width="4" height="4"></rect><rect x="40" y="20" class="fg" width="4" height="4"></rect><rect x="56" y="20" class="fg" width="4" height="4"></rect><rect x="60" y="20" class="fg" width="4" height="4"></rect><rect x="64" y="20" class="fg" width="4" height="4"></rect><rect x="68" y="20" class="fg" width="4" height="4"></rect><rect x="72" y="20" class="fg" width="4" height="4"></rect><rect x="84" y="20" class="fg" width="4" height="4"></rect><rect x="92" y="20" class="fg" width="4" height="4"></rect><rect x="96" y="20" class="fg" width="4" height="4"></rect><rect x="104" y="20" class="fg" width="4" height="4"></rect><rect x="128" y="20" class="fg" width="4" height="4"></rect><rect x="16" y="24" class="fg" width="4" height="4"></rect><rect x="24" y="24" class="fg" width="4" height="4"></rect><rect x="28" y="24" class="fg" width="4" height="4"></rect><rect x="32" y="24" class="fg" width="4" height="4"></rect><rect x="40" y="24" class="fg" width="4" height="4"></rect><rect x="52" y="24" class="fg" width="4" height="4"></rect><rect x="60" y="24" class="fg" width="4" height="4"></rect><rect x="64" y="24" class="fg" width="4" height="4"></rect><rect x="68" y="24" class="fg" width="4" height="4"></rect><rect x="84" y="24" class="fg" width="4" height="4"></rect><rect x="96" y="24" class="fg" width="4" height="4"></rect><rect x="104" y="24" class="fg" width="4" height="4"></rect><rect x="112" y="24" class="fg" width="4" height="4"></rect><rect x="116" y="24" class="fg" width="4" height="4"></rect><rect x="120" y="24" class="fg" width="4" height="4"></rect><rect x="128" y="24" class="fg" width="4" height="4"></rect><rect x="16" y="28" class="fg" width="4" height="4"></rect><rect x="24" y="28" class="fg" width="4" height="4"></rect><rect x="28" y="28" class="fg" width="4" height="4"></rect><rect x="32" y="28" class="fg" width="4" height="4"></rect><rect x="40" y="28" class="fg" width="4" height="4"></rect><rect x="48" y="28" class="fg" width="4" height="4"></rect><rect x="52" y="28" class="fg" width="4" height="4"></rect><rect x="56" y="28" class="fg" width="4" height="4"></rect><rect x="72" y="28" class="fg" width="4" height="4"></rect><rect x="76" y="28" class="fg" width="4" height="4"></rect><rect x="80" y="28" class="fg" width="4" height="4"></rect><rect x="84" y="28" class="fg" width="4" height="4"></rect><rect x="92" y="28" class="fg" width="4" height="4"></rect><rect x="96" y="28" class="fg" width="4" height="4"></rect><rect x="104" y="28" class="fg" width="4" height="4"></rect><rect x="112" y="28" class="fg" width="4" height="4"></rect><rect x="116" y="28" class="fg" width="4" height="4"></rect><rect x="120" y="28" class="fg" width="4" height="4"></rect><rect x="128" y="28" class="fg" width="4" height="4"></rect><rect x="16" y="32" class="fg" width="4" height="4"></rect><rect x="24" y="32" class="fg" width="4" height="4"></rect><rect x="28" y="32" class="fg" width="4" height="4"></rect><rect x="32" y="32" class="fg" width="4" height="4"></rect><rect x="40" y="32" class="fg" width="4" height="4"></rect><rect x="52" y="32" class="fg" width="4" height="4"></rect><rect x="56" y="32" class="fg" width="4" height="4"></rect><rect x="60" y="32" class="fg" width="4" height="4"></rect><rect x="64" y="32" class="fg" width="4" height="4"></rect><rect x="68" y="32" class="fg" width="4" height="4"></rect><rect x="72" y="32" class="fg" width="4" height="4"></rect><rect x="80" y="32" class="fg" width="4" height="4"></rect><rect x="84" y="32" class="fg" width="4" height="4"></rect><rect x="88" y="32" class="fg" width="4" height="4"></rect><rect x="104" y="32" class="fg" width="4" height="4"></rect><rect x="112" y="32" class="fg" width="4" height="4"></rect><rect x="116" y="32" class="fg" width="4" height="4"></rect><rect x="120" y="32" class="fg" width="4" height="4"></rect><rect x="128" y="32" class="fg" width="4" height="4"></rect><rect x="16" y="36" class="fg" width="4" height="4"></rect><rect x="40" y="36" class="fg" width="4" height="4"></rect><rect x="52" y="36" class="fg" width="4" height="4"></rect><rect x="60" y="36" class="fg" width="4" height="4"></rect><rect x="68" y="36" class="fg" width="4" height="4"></rect><rect x="72" y="36" class="fg" width="4" height="4"></rect><rect x="80" y="36" class="fg" width="4" height="4"></rect><rect x="88" y="36" class="fg" width="4" height="4"></rect><rect x="96" y="36" class="fg" width="4" height="4"></rect><rect x="104" y="36" class="fg" width="4" height="4"></rect><rect x="128" y="36" class="fg" width="4" height="4"></rect><rect x="16" y="40" class="fg" width="4" height="4"></rect><rect x="20" y="40" class="fg" width="4" height="4"></rect><rect x="24" y="40" class="fg" width="4" height="4"></rect><rect x="28" y="40" class="fg" width="4" height="4"></rect><rect x="32" y="40" class="fg" width="4" height="4"></rect><rect x="36" y="40" class="fg" width="4" height="4"></rect><rect x="40" y="40" class="fg" width="4" height="4"></rect><rect x="48" y="40" class="fg" width="4" height="4"></rect><rect x="56" y="40" class="fg" width="4" height="4"></rect><rect x="64" y="40" class="fg" width="4" height="4"></rect><rect x="72" y="40" class="fg" width="4" height="4"></rect><rect x="80" y="40" class="fg" width="4" height="4"></rect><rect x="88" y="40" class="fg" width="4" height="4"></rect><rect x="96" y="40" class="fg" width="4" height="4"></rect><rect x="104" y="40" class="fg" width="4" height="4"></rect><rect x="108" y="40" class="fg" width="4" height="4"></rect><rect x="112" y="40" class="fg" width="4" height="4"></rect><rect x="116" y="40" class="fg" width="4" height="4"></rect><rect x="120" y="40" class="fg" width="4" height="4"></rect><rect x="124" y="40" class="fg" width="4" height="4"></rect><rect x="128" y="40" class="fg" width="4" height="4"></rect><rect x="52" y="44" class="fg" width="4" height="4"></rect><rect x="56" y="44" class="fg" width="4" height="4"></rect><rect x="60" y="44" class="fg" width="4" height="4"></rect><rect x="68" y="44" class="fg" width="4" height="4"></rect><rect x="92" y="44" class="fg" width="4" height="4"></rect><rect x="96" y="44" class="fg" width="4" height="4"></rect><rect x="24" y="48" class="fg" width="4" height="4"></rect><rect x="32" y="48" class="fg" width="4" height="4"></rect><rect x="36" y="48" class="fg" width="4" height="4"></rect><rect x="40" y="48" class="fg" width="4" height="4"></rect><rect x="48" y="48" class="fg" width="4" height="4"></rect><rect x="56" y="48" class="fg" width="4" height="4"></rect><rect x="64" y="48" class="fg" width="4" height="4"></rect><rect x="68" y="48" class="fg" width="4" height="4"></rect><rect x="80" y="48" class="fg" width="4" height="4"></rect><rect x="96" y="48" class="fg" width="4" height="4"></rect><rect x="100" y="48" class="fg" width="4" height="4"></rect><rect x="116" y="48" class="fg" width="4" height="4"></rect><rect x="128" y="48" class="fg" width="4" height="4"></rect><rect x="20" y="52" class="fg" width="4" height="4"></rect><rect x="28" y="52" class="fg" width="4" height="4"></rect><rect x="36" y="52" class="fg" width="4" height="4"></rect><rect x="44" y="52" class="fg" width="4" height="4"></rect><rect x="64" y="52" class="fg" width="4" height="4"></rect><rect x="72" y="52" class="fg" width="4" height="4"></rect><rect x="84" y="52" class="fg" width="4" height="4"></rect><rect x="92" y="52" class="fg" width="4" height="4"></rect><rect x="96" y="52" class="fg" width="4" height="4"></rect><rect x="112" y="52" class="fg" width="4" height="4"></rect><rect x="116" y="52" class="fg" width="4" height="4"></rect><rect x="28" y="56" class="fg" width="4" height="4"></rect><rect x="32" y="56" class="fg" width="4" height="4"></rect><rect x="40" y="56" class="fg" width="4" height="4"></rect><rect x="44" y="56" class="fg" width="4" height="4"></rect><rect x="48" y="56" class="fg" width="4" height="4"></rect><rect x="60" y="56" class="fg" width="4" height="4"></rect><rect x="68" y="56" class="fg" width="4" height="4"></rect><rect x="72" y="56" class="fg" width="4" height="4"></rect><rect x="80" y="56" class="fg" width="4" height="4"></rect><rect x="88" y="56" class="fg" width="4" height="4"></rect><rect x="92" y="56" class="fg" width="4" height="4"></rect><rect x="96" y="56" class="fg" width="4" height="4"></rect><rect x="112" y="56" class="fg" width="4" height="4"></rect><rect x="120" y="56" class="fg" width="4" height="4"></rect><rect x="16" y="60" class="fg" width="4" height="4"></rect><rect x="20" y="60" class="fg" width="4" height="4"></rect><rect x="28" y="60" class="fg" width="4" height="4"></rect><rect x="48" y="60" class="fg" width="4" height="4"></rect><rect x="52" y="60" class="fg" width="4" height="4"></rect><rect x="60" y="60" class="fg" width="4" height="4"></rect><rect x="96" y="60" class="fg" width="4" height="4"></rect><rect x="100" y="60" class="fg" width="4" height="4"></rect><rect x="108" y="60" class="fg" width="4" height="4"></rect><rect x="112" y="60" class="fg" width="4" height="4"></rect><rect x="120" y="60" class="fg" width="4" height="4"></rect><rect x="124" y="60" class="fg" width="4" height="4"></rect><rect x="40" y="64" class="fg" width="4" height="4"></rect><rect x="44" y="64" class="fg" width="4" height="4"></rect><rect x="52" y="64" class="fg" width="4" height="4"></rect><rect x="56" y="64" class="fg" width="4" height="4"></rect><rect x="68" y="64" class="fg" width="4" height="4"></rect><rect x="80" y="64" class="fg" width="4" height="4"></rect><rect x="88" y="64" class="fg" width="4" height="4"></rect><rect x="92" y="64" class="fg" width="4" height="4"></rect><rect x="100" y="64" class="fg" width="4" height="4"></rect><rect x="108" y="64" class="fg" width="4" height="4"></rect><rect x="116" y="64" class="fg" width="4" height="4"></rect><rect x="120" y="64" class="fg" width="4" height="4"></rect><rect x="128" y="64" class="fg" width="4" height="4"></rect><rect x="16" y="68" class="fg" width="4" height="4"></rect><rect x="24" y="68" class="fg" width="4" height="4"></rect><rect x="28" y="68" class="fg" width="4" height="4"></rect><rect x="36" y="68" class="fg" width="4" height="4"></rect><rect x="56" y="68" class="fg" width="4" height="4"></rect><rect x="60" y="68" class="fg" width="4" height="4"></rect><rect x="76" y="68" class="fg" width="4" height="4"></rect><rect x="84" y="68" class="fg" width="4" height="4"></rect><rect x="88" y="68" class="fg" width="4" height="4"></rect><rect x="108" y="68" class="fg" width="4" height="4"></rect><rect x="112" y="68" class="fg" width="4" height="4"></rect><rect x="120" y="68" class="fg" width="4" height="4"></rect><rect x="124" y="68" class="fg" width="4" height="4"></rect><rect x="128" y="68" class="fg" width="4" height="4"></rect><rect x="16" y="72" class="fg" width="4" height="4"></rect><rect x="24" y="72" class="fg" width="4" height="4"></rect><rect x="28" y="72" class="fg" width="4" height="4"></rect><rect x="32" y="72" class="fg" width="4" height="4"></rect><rect x="36" y="72" class="fg" width="4" height="4"></rect><rect x="40" y="72" class="fg" width="4" height="4"></rect><rect x="48" y="72" class="fg" width="4" height="4"></rect><rect x="52" y="72" class="fg" width="4" height="4"></rect><rect x="64" y="72" class="fg" width="4" height="4"></rect><rect x="76" y="72" class="fg" width="4" height="4"></rect><rect x="80" y="72" class="fg" width="4" height="4"></rect><rect x="92" y="72" class="fg" width="4" height="4"></rect><rect x="96" y="72" class="fg" width="4" height="4"></rect><rect x="104" y="72" class="fg" width="4" height="4"></rect><rect x="112" y="72" class="fg" width="4" height="4"></rect><rect x="116" y="72" class="fg" width="4" height="4"></rect><rect x="128" y="72" class="fg" width="4" height="4"></rect><rect x="20" y="76" class="fg" width="4" height="4"></rect><rect x="24" y="76" class="fg" width="4" height="4"></rect><rect x="32" y="76" class="fg" width="4" height="4"></rect><rect x="44" y="76" class="fg" width="4" height="4"></rect><rect x="48" y="76" class="fg" width="4" height="4"></rect><rect x="56" y="76" class="fg" width="4" height="4"></rect><rect x="60" y="76" class="fg" width="4" height="4"></rect><rect x="64" y="76" class="fg" width="4" height="4"></rect><rect x="68" y="76" class="fg" width="4" height="4"></rect><rect x="72" y="76" class="fg" width="4" height="4"></rect><rect x="76" y="76" class="fg" width="4" height="4"></rect><rect x="80" y="76" class="fg" width="4" height="4"></rect><rect x="84" y="76" class="fg" width="4" height="4"></rect><rect x="92" y="76" class="fg" width="4" height="4"></rect><rect x="108" y="76" class="fg" width="4" height="4"></rect><rect x="120" y="76" class="fg" width="4" height="4"></rect><rect x="124" y="76" class="fg" width="4" height="4"></rect><rect x="16" y="80" class="fg" width="4" height="4"></rect><rect x="20" y="80" class="fg" width="4" height="4"></rect><rect x="24" y="80" class="fg" width="4" height="4"></rect><rect x="28" y="80" class="fg" width="4" height="4"></rect><rect x="32" y="80" class="fg" width="4" height="4"></rect><rect x="36" y="80" class="fg" width="4" height="4"></rect><rect x="40" y="80" class="fg" width="4" height="4"></rect><rect x="44" y="80" class="fg" width="4" height="4"></rect><rect x="48" y="80" class="fg" width="4" height="4"></rect><rect x="52" y="80" class="fg" width="4" height="4"></rect><rect x="64" y="80" class="fg" width="4" height="4"></rect><rect x="76" y="80" class="fg" width="4" height="4"></rect><rect x="84" y="80" class="fg" width="4" height="4"></rect><rect x="88" y="80" class="fg" width="4" height="4"></rect><rect x="96" y="80" class="fg" width="4" height="4"></rect><rect x="108" y="80" class="fg" width="4" height="4"></rect><rect x="116" y="80" class="fg" width="4" height="4"></rect><rect x="120" y="80" class="fg" width="4" height="4"></rect><rect x="124" y="80" class="fg" width="4" height="4"></rect><rect x="20" y="84" class="fg" width="4" height="4"></rect><rect x="36" y="84" class="fg" width="4" height="4"></rect><rect x="48" y="84" class="fg" width="4" height="4"></rect><rect x="52" y="84" class="fg" width="4" height="4"></rect><rect x="56" y="84" class="fg" width="4" height="4"></rect><rect x="64" y="84" class="fg" width="4" height="4"></rect><rect x="72" y="84" class="fg" width="4" height="4"></rect><rect x="80" y="84" class="fg" width="4" height="4"></rect><rect x="84" y="84" class="fg" width="4" height="4"></rect><rect x="88" y="84" class="fg" width="4" height="4"></rect><rect x="92" y="84" class="fg" width="4" height="4"></rect><rect x="100" y="84" class="fg" width="4" height="4"></rect><rect x="108" y="84" class="fg" width="4" height="4"></rect><rect x="112" y="84" class="fg" width="4" height="4"></rect><rect x="116" y="84" class="fg" width="4" height="4"></rect><rect x="16" y="88" class="fg" width="4" height="4"></rect><rect x="28" y="88" class="fg" width="4" height="4"></rect><rect x="40" y="88" class="fg" width="4" height="4"></rect><rect x="44" y="88" class="fg" width="4" height="4"></rect><rect x="68" y="88" class="fg" width="4" height="4"></rect><rect x="80" y="88" class="fg" width="4" height="4"></rect><rect x="84" y="88" class="fg" width="4" height="4"></rect><rect x="104" y="88" class="fg" width="4" height="4"></rect><rect x="112" y="88" class="fg" width="4" height="4"></rect><rect x="120" y="88" class="fg" width="4" height="4"></rect><rect x="124" y="88" class="fg" width="4" height="4"></rect><rect x="20" y="92" class="fg" width="4" height="4"></rect><rect x="24" y="92" class="fg" width="4" height="4"></rect><rect x="48" y="92" class="fg" width="4" height="4"></rect><rect x="52" y="92" class="fg" width="4" height="4"></rect><rect x="64" y="92" class="fg" width="4" height="4"></rect><rect x="68" y="92" class="fg" width="4" height="4"></rect><rect x="84" y="92" class="fg" width="4" height="4"></rect><rect x="88" y="92" class="fg" width="4" height="4"></rect><rect x="92" y="92" class="fg" width="4" height="4"></rect><rect x="100" y="92" class="fg" width="4" height="4"></rect><rect x="108" y="92" class="fg" width="4" height="4"></rect><rect x="116" y="92" class="fg" width="4" height="4"></rect><rect x="120" y="92" class="fg" width="4" height="4"></rect><rect x="16" y="96" class="fg" width="4" height="4"></rect><rect x="28" y="96" class="fg" width="4" height="4"></rect><rect x="40" y="96" class="fg" width="4" height="4"></rect><rect x="44" y="96" class="fg" width="4" height="4"></rect><rect x="60" y="96" class="fg" width="4" height="4"></rect><rect x="72" y="96" class="fg" width="4" height="4"></rect><rect x="80" y="96" class="fg" width="4" height="4"></rect><rect x="84" y="96" class="fg" width="4" height="4"></rect><rect x="88" y="96" class="fg" width="4" height="4"></rect><rect x="96" y="96" class="fg" width="4" height="4"></rect><rect x="100" y="96" class="fg" width="4" height="4"></rect><rect x="104" y="96" class="fg" width="4" height="4"></rect><rect x="108" y="96" class="fg" width="4" height="4"></rect><rect x="112" y="96" class="fg" width="4" height="4"></rect><rect x="116" y="96" class="fg" width="4" height="4"></rect><rect x="124" y="96" class="fg" width="4" height="4"></rect><rect x="128" y="96" class="fg" width="4" height="4"></rect><rect x="48" y="100" class="fg" width="4" height="4"></rect><rect x="56" y="100" class="fg" width="4" height="4"></rect><rect x="60" y="100" class="fg" width="4" height="4"></rect><rect x="64" y="100" class="fg" width="4" height="4"></rect><rect x="76" y="100" class="fg" width="4" height="4"></rect><rect x="84" y="100" class="fg" width="4" height="4"></rect><rect x="88" y="100" class="fg" width="4" height="4"></rect><rect x="96" y="100" class="fg" width="4" height="4"></rect><rect x="112" y="100" class="fg" width="4" height="4"></rect><rect x="116" y="100" class="fg" width="4" height="4"></rect><rect x="124" y="100" class="fg" width="4" height="4"></rect><rect x="128" y="100" class="fg" width="4" height="4"></rect><rect x="16" y="104" class="fg" width="4" height="4"></rect><rect x="20" y="104" class="fg" width="4" height="4"></rect><rect x="24" y="104" class="fg" width="4" height="4"></rect><rect x="28" y="104" class="fg" width="4" height="4"></rect><rect x="32" y="104" class="fg" width="4" height="4"></rect><rect x="36" y="104" class="fg" width="4" height="4"></rect><rect x="40" y="104" class="fg" width="4" height="4"></rect><rect x="52" y="104" class="fg" width="4" height="4"></rect><rect x="56" y="104" class="fg" width="4" height="4"></rect><rect x="60" y="104" class="fg" width="4" height="4"></rect><rect x="64" y="104" class="fg" width="4" height="4"></rect><rect x="68" y="104" class="fg" width="4" height="4"></rect><rect x="76" y="104" class="fg" width="4" height="4"></rect><rect x="80" y="104" class="fg" width="4" height="4"></rect><rect x="84" y="104" class="fg" width="4" height="4"></rect><rect x="88" y="104" class="fg" width="4" height="4"></rect><rect x="96" y="104" class="fg" width="4" height="4"></rect><rect x="104" y="104" class="fg" width="4" height="4"></rect><rect x="112" y="104" class="fg" width="4" height="4"></rect><rect x="116" y="104" class="fg" width="4" height="4"></rect><rect x="120" y="104" class="fg" width="4" height="4"></rect><rect x="128" y="104" class="fg" width="4" height="4"></rect><rect x="16" y="108" class="fg" width="4" height="4"></rect><rect x="40" y="108" class="fg" width="4" height="4"></rect><rect x="48" y="108" class="fg" width="4" height="4"></rect><rect x="52" y="108" class="fg" width="4" height="4"></rect><rect x="56" y="108" class="fg" width="4" height="4"></rect><rect x="68" y="108" class="fg" width="4" height="4"></rect><rect x="80" y="108" class="fg" width="4" height="4"></rect><rect x="84" y="108" class="fg" width="4" height="4"></rect><rect x="88" y="108" class="fg" width="4" height="4"></rect><rect x="96" y="108" class="fg" width="4" height="4"></rect><rect x="112" y="108" class="fg" width="4" height="4"></rect><rect x="116" y="108" class="fg" width="4" height="4"></rect><rect x="120" y="108" class="fg" width="4" height="4"></rect><rect x="124" y="108" class="fg" width="4" height="4"></rect><rect x="128" y="108" class="fg" width="4" height="4"></rect><rect x="16" y="112" class="fg" width="4" height="4"></rect><rect x="24" y="112" class="fg" width="4" height="4"></rect><rect x="28" y="112" class="fg" width="4" height="4"></rect><rect x="32" y="112" class="fg" width="4" height="4"></rect><rect x="40" y="112" class="fg" width="4" height="4"></rect><rect x="48" y="112" class="fg" width="4" height="4"></rect><rect x="52" y="112" class="fg" width="4" height="4"></rect><rect x="76" y="112" class="fg" width="4" height="4"></rect><rect x="80" y="112" class="fg" width="4" height="4"></rect><rect x="88" y="112" class="fg" width="4" height="4"></rect><rect x="92" y="112" class="fg" width="4" height="4"></rect><rect x="96" y="112" class="fg" width="4" height="4"></rect><rect x="100" y="112" class="fg" width="4" height="4"></rect><rect x="104" y="112" class="fg" width="4" height="4"></rect><rect x="108" y="112" class="fg" width="4" height="4"></rect><rect x="112" y="112" class="fg" width="4" height="4"></rect><rect x="120" y="112" class="fg" width="4" height="4"></rect><rect x="128" y="112" class="fg" width="4" height="4"></rect><rect x="16" y="116" class="fg" width="4" height="4"></rect><rect x="24" y="116" class="fg" width="4" height="4"></rect><rect x="28" y="116" class="fg" width="4" height="4"></rect><rect x="32" y="116" class="fg" width="4" height="4"></rect><rect x="40" y="116" class="fg" width="4" height="4"></rect><rect x="60" y="116" class="fg" width="4" height="4"></rect><rect x="68" y="116" class="fg" width="4" height="4"></rect><rect x="72" y="116" class="fg" width="4" height="4"></rect><rect x="76" y="116" class="fg" width="4" height="4"></rect><rect x="80" y="116" class="fg" width="4" height="4"></rect><rect x="88" y="116" class="fg" width="4" height="4"></rect><rect x="92" y="116" class="fg" width="4" height="4"></rect><rect x="96" y="116" class="fg" width="4" height="4"></rect><rect x="100" y="116" class="fg" width="4" height="4"></rect><rect x="104" y="116" class="fg" width="4" height="4"></rect><rect x="120" y="116" class="fg" width="4" height="4"></rect><rect x="16" y="120" class="fg" width="4" height="4"></rect><rect x="24" y="120" class="fg" width="4" height="4"></rect><rect x="28" y="120" class="fg" width="4" height="4"></rect><rect x="32" y="120" class="fg" width="4" height="4"></rect><rect x="40" y="120" class="fg" width="4" height="4"></rect><rect x="48" y="120" class="fg" width="4" height="4"></rect><rect x="52" y="120" class="fg" width="4" height="4"></rect><rect x="68" y="120" class="fg" width="4" height="4"></rect><rect x="80" y="120" class="fg" width="4" height="4"></rect><rect x="96" y="120" class="fg" width="4" height="4"></rect><rect x="100" y="120" class="fg" width="4" height="4"></rect><rect x="108" y="120" class="fg" width="4" height="4"></rect><rect x="120" y="120" class="fg" width="4" height="4"></rect><rect x="128" y="120" class="fg" width="4" height="4"></rect><rect x="16" y="124" class="fg" width="4" height="4"></rect><rect x="40" y="124" class="fg" width="4" height="4"></rect><rect x="56" y="124" class="fg" width="4" height="4"></rect><rect x="60" y="124" class="fg" width="4" height="4"></rect><rect x="64" y="124" class="fg" width="4" height="4"></rect><rect x="76" y="124" class="fg" width="4" height="4"></rect><rect x="88" y="124" class="fg" width="4" height="4"></rect><rect x="92" y="124" class="fg" width="4" height="4"></rect><rect x="96" y="124" class="fg" width="4" height="4"></rect><rect x="100" y="124" class="fg" width="4" height="4"></rect><rect x="108" y="124" class="fg" width="4" height="4"></rect><rect x="120" y="124" class="fg" width="4" height="4"></rect><rect x="124" y="124" class="fg" width="4" height="4"></rect><rect x="16" y="128" class="fg" width="4" height="4"></rect><rect x="20" y="128" class="fg" width="4" height="4"></rect><rect x="24" y="128" class="fg" width="4" height="4"></rect><rect x="28" y="128" class="fg" width="4" height="4"></rect><rect x="32" y="128" class="fg" width="4" height="4"></rect><rect x="36" y="128" class="fg" width="4" height="4"></rect><rect x="40" y="128" class="fg" width="4" height="4"></rect><rect x="60" y="128" class="fg" width="4" height="4"></rect><rect x="68" y="128" class="fg" width="4" height="4"></rect><rect x="72" y="128" class="fg" width="4" height="4"></rect><rect x="76" y="128" class="fg" width="4" height="4"></rect><rect x="88" y="128" class="fg" width="4" height="4"></rect><rect x="96" y="128" class="fg" width="4" height="4"></rect><rect x="104" y="128" class="fg" width="4" height="4"></rect><rect x="112" y="128" class="fg" width="4" height="4"></rect><rect x="116" y="128" class="fg" width="4" height="4"></rect><rect x="120" y="128" class="fg" width="4" height="4"></rect><rect x="124" y="128" class="fg" width="4" height="4"></rect><rect x="128" y="128" class="fg" width="4" height="4"></rect></svg>